# 
# Wavefront OBJ file
# Converted by the DEEP Exploration 2.1.12.1218
# Right Hemisphere, LTD
# http://www.righthemisphere.com/
# 
mtllib cube.mtl
# object Object #0
g Object__0
v 0.3 -0.3 -0.3
v 0.3 -0.3 0.3
v -0.3 -0.3 0.3
v -0.3 -0.3 -0.3
v 0.3 0.3 -0.3
v 0.3 0.3 0.3
v -0.3 0.3 0.3
v -0.3 0.3 -0.3
# 8 verticies
vn 0 -1 0
vn 0 1 0
vn 1 0 0
vn 0 0 1
vn -1 0 0
vn 0 0 -1
# 6 normals
usemtl Material
f  1//1 3//1 4//1
f  1//1 2//1 3//1
f  5//2 7//2 6//2
f  5//2 8//2 7//2
f  1//3 6//3 2//3
f  1//3 5//3 6//3
f  2//4 7//4 3//4
f  2//4 6//4 7//4
f  3//5 8//5 4//5
f  3//5 7//5 8//5
f  5//6 4//6 8//6
f  5//6 1//6 4//6
